<?xml version="1.0" encoding="UTF-8" standalone="no"?>
<!-- Created with Inkscape (http://www.inkscape.org/) -->

<svg
   width="110.36603mm"
   height="110.41958mm"
   viewBox="0 0 110.36603 110.41958"
   version="1.1"
   id="svg1"
   xml:space="preserve"
   xmlns="http://www.w3.org/2000/svg"
   xmlns:svg="http://www.w3.org/2000/svg"><defs
     id="defs1" /><g
     id="layer1"
     transform="translate(-50.656215,-82.648951)"><path
       style="fill:#000000"
       d="m 106.96921,193.05486 c -0.0822,-0.0145 -0.31093,-0.0553 -0.50825,-0.0906 -1.03553,-0.18527 -1.72657,-0.86483 -1.97684,-1.94398 -0.0505,-0.21792 -0.0781,-0.41 -0.0613,-0.42685 0.037,-0.037 1.23237,-0.12642 1.75408,-0.13124 0.34833,-0.003 0.37379,0.006 0.37502,0.13109 0.004,0.3692 0.38863,0.86595 0.76997,0.9934 0.94787,0.31679 1.82422,-0.44821 1.25549,-1.09596 -0.19365,-0.22055 -0.34067,-0.27678 -1.7133,-0.65535 -1.01344,-0.2795 -1.65193,-0.683 -1.95951,-1.23833 -0.16212,-0.2927 -0.17763,-0.37041 -0.17737,-0.88878 2.5e-4,-0.49895 0.0196,-0.60469 0.15908,-0.8694 0.2005,-0.38051 0.62573,-0.77516 1.02594,-0.95215 0.84939,-0.37565 2.32476,-0.41652 3.29918,-0.0914 0.49795,0.16615 0.90555,0.49342 1.13666,0.91267 0.16672,0.30245 0.37511,0.97526 0.31865,1.02881 -0.0112,0.0106 -0.4777,0.038 -1.03676,0.0609 l -1.01648,0.0417 -0.14949,-0.31746 c -0.19969,-0.4241 -0.38624,-0.55021 -0.85269,-0.57643 -0.61103,-0.0343 -0.96558,0.23952 -0.85913,0.66363 0.0552,0.22007 0.28421,0.32043 1.32127,0.57907 1.72917,0.43125 2.33563,0.80009 2.70109,1.64276 0.14299,0.32968 0.14619,1.15439 0.006,1.55462 -0.23768,0.67876 -0.84307,1.23692 -1.62377,1.49708 -0.40566,0.13518 -0.60872,0.16416 -1.26084,0.17991 -0.42752,0.0103 -0.84458,0.007 -0.92679,-0.008 z m -2.22527,-21.17465 c -1.60208,-6.10657 -2.90707,-11.10707 -2.89996,-11.11222 0.007,-0.005 0.59142,0.1205 1.29847,0.27923 2.48526,0.55793 2.9403,0.61866 4.63396,0.61847 1.67955,-2e-4 2.36133,-0.077 4.42469,-0.49856 0.62484,-0.12766 1.14295,-0.22616 1.15135,-0.21889 0.026,0.0225 -5.634,22.03543 -5.66573,22.03512 -0.0164,-1.6e-4 -1.34069,-4.99658 -2.94278,-11.10315 z m 1.23868,-12.28044 c -8.0046,-0.69809 -15.02082,-5.83893 -18.237979,-13.36312 -1.146617,-2.68168 -1.718917,-5.50111 -1.722433,-8.48554 -0.0023,-1.93792 0.169228,-3.38508 0.616594,-5.20267 1.399005,-5.68396 5.031004,-10.6223 10.05101,-13.66611 4.637308,-2.81177 10.020308,-3.74468 15.272118,-2.64676 7.5156,1.57118 13.81872,7.27578 16.2744,14.72902 0.4442,1.34822 0.81683,3.11503 0.98362,4.66386 0.0967,0.89768 0.0966,3.31134 -1.7e-4,4.18552 -0.32995,2.98137 -1.05562,5.40091 -2.39644,7.99023 -2.13841,4.12958 -5.50633,7.46299 -9.65941,9.56044 -2.3106,1.16693 -4.55114,1.84897 -7.08548,2.15687 -0.92079,0.11187 -3.20906,0.15559 -4.09583,0.0783 z m 2.98965,-2.14723 c 2.73182,-0.19301 4.96777,-0.79668 7.41435,-2.00178 5.38365,-2.65179 9.23331,-7.73083 10.4018,-13.7236 0.29538,-1.51488 0.35492,-2.1869 0.35492,-4.00595 0,-1.86254 -0.0629,-2.54293 -0.38151,-4.12572 -0.98819,-4.90934 -3.79771,-9.25069 -7.834,-12.10532 -5.87377,-4.15416 -13.76742,-4.70186 -20.210067,-1.40227 -1.839506,0.9421 -3.233871,1.9561 -4.744273,3.45008 -3.157536,3.12321 -5.054976,6.99338 -5.672535,11.57014 -0.107779,0.79875 -0.130721,1.25737 -0.130721,2.61309 0,1.78694 0.10039,2.83015 0.412574,4.2873 1.262238,5.89161 5.013994,10.78314 10.306323,13.43734 3.070819,1.54007 6.638349,2.25006 10.083139,2.00669 z M 74.192342,140.77875 c -6.171801,-1.66489 -11.208673,-3.04065 -11.19305,-3.05725 0.05717,-0.0607 22.474847,-6.07759 22.491738,-6.03673 0.0096,0.0232 -0.05141,0.34716 -0.135548,0.71991 -0.438086,1.94069 -0.5924,3.31854 -0.595434,5.31653 -0.003,1.98122 0.137631,3.27062 0.566031,5.1894 0.192148,0.86063 0.199852,0.91307 0.132564,0.90235 -0.02466,-0.004 -5.0945,-1.36932 -11.266301,-3.03421 z m 56.215758,2.84685 c 0,-0.016 0.13347,-0.64474 0.2966,-1.39722 0.84289,-3.88802 0.84301,-5.12504 8.7e-4,-9.00445 -0.16479,-0.75912 -0.29075,-1.38909 -0.27991,-1.39993 0.0299,-0.0299 21.86604,5.86236 21.8664,5.90039 1.7e-4,0.0182 -4.86311,1.34421 -10.80729,2.94672 -12.57829,3.39101 -11.07667,2.99048 -11.07667,2.95449 z m -78.177873,-2.39019 c -0.01407,-0.0419 -0.351772,-1.56943 -0.750447,-3.39461 -0.398675,-1.82519 -0.747071,-3.42003 -0.774215,-3.5441 l -0.04935,-0.22558 1.053476,0.0163 1.053477,0.0163 0.360558,1.92458 c 0.198307,1.05852 0.375949,1.93941 0.394759,1.95754 0.01881,0.0181 0.274426,-0.85451 0.568035,-1.93921 l 0.533833,-1.97219 1.052108,-3.1e-4 1.052108,-3.1e-4 0.524137,1.92833 c 0.288275,1.06058 0.54204,1.96135 0.563923,2.00171 0.02188,0.0404 0.184164,-0.70904 0.360626,-1.66533 0.176463,-0.9563 0.346083,-1.85707 0.376933,-2.00171 l 0.05609,-0.263 h 1.047934 c 0.812634,0 1.041978,0.0168 1.021406,0.0747 -0.01459,0.0411 -0.372213,1.66898 -0.794716,3.61749 l -0.768188,3.54274 h -1.092353 -1.092353 l -0.06219,-0.22423 c -0.0342,-0.12332 -0.310709,-1.13064 -0.614456,-2.23849 -0.303746,-1.10785 -0.566275,-2.00052 -0.583397,-1.98372 -0.01712,0.0168 -0.300775,1.0174 -0.630341,2.22355 l -0.599209,2.19299 -1.091303,0.0163 c -0.841755,0.0126 -1.097152,-0.001 -1.116886,-0.0598 z m 102.752833,-3.54409 v -3.61749 h 2.99145 2.99144 l -0.0167,0.76237 -0.0167,0.76236 -1.86854,0.0158 -1.86853,0.0158 v 0.56718 0.56718 h 1.734 1.734 v 0.74742 0.74741 h -1.734 -1.734 v 0.71752 0.71751 h 1.91338 1.91338 v 0.80721 0.80721 h -3.01955 -3.01956 z m -53.26131,-23.12498 c 0.0149,-0.0411 1.36831,-5.03322 3.00753,-11.09357 1.63922,-6.060355 2.99889,-10.984317 3.02147,-10.942138 0.0742,0.13859 5.81233,22.053948 5.78228,22.083998 -0.0161,0.0161 -0.26375,-0.0253 -0.55026,-0.0921 -0.71955,-0.16778 -1.95289,-0.39192 -2.84453,-0.51696 -0.9419,-0.13208 -3.70056,-0.15171 -4.69376,-0.0334 -0.8825,0.10512 -2.2365,0.34013 -3.00253,0.52113 -0.72022,0.17018 -0.75679,0.17389 -0.7202,0.0731 z m 2.55677,-28.267191 V 82.65177 l 1.03143,0.0024 1.03143,0.0024 1.34534,2.005216 1.34535,2.005217 0.0157,-2.009026 0.0157,-2.009026 1.03063,0.01636 1.03064,0.01636 0.0154,3.633813 0.0154,3.633812 -1.0595,-0.01633 -1.0595,-0.01633 -1.31774,-1.957386 -1.31774,-1.957386 -0.0157,1.972334 -0.0158,1.972335 h -1.04557 -1.04557 z"
       id="path1" /></g></svg>
