<?xml version="1.0" encoding="UTF-8" standalone="no"?>
<!-- Created with Inkscape (http://www.inkscape.org/) -->

<svg
   width="210mm"
   height="297mm"
   viewBox="0 0 210 297"
   version="1.1"
   id="svg1"
   xml:space="preserve"
   inkscape:version="1.3 (0e150ed6c4, 2023-07-21)"
   sodipodi:docname="desaparecidos.svg"
   xmlns:inkscape="http://www.inkscape.org/namespaces/inkscape"
   xmlns:sodipodi="http://sodipodi.sourceforge.net/DTD/sodipodi-0.dtd"
   xmlns="http://www.w3.org/2000/svg"
   xmlns:svg="http://www.w3.org/2000/svg"><sodipodi:namedview
     id="namedview1"
     pagecolor="#ffffff"
     bordercolor="#000000"
     borderopacity="0.25"
     inkscape:showpageshadow="2"
     inkscape:pageopacity="0.0"
     inkscape:pagecheckerboard="0"
     inkscape:deskcolor="#d1d1d1"
     inkscape:document-units="mm"
     inkscape:zoom="0.51213161"
     inkscape:cx="396.38248"
     inkscape:cy="561.37913"
     inkscape:window-width="1920"
     inkscape:window-height="1009"
     inkscape:window-x="-8"
     inkscape:window-y="-8"
     inkscape:window-maximized="1"
     inkscape:current-layer="layer1" /><defs
     id="defs1" /><g
     inkscape:label="Capa 1"
     inkscape:groupmode="layer"
     id="layer1"><g
       id="g2"
       transform="matrix(1.1032319,0,0,1.1032319,-10.868667,8.2023127)"><ellipse
         style="opacity:1;fill:#04a0f4;fill-opacity:1;fill-rule:evenodd;stroke:#ffffff;stroke-width:1.71;stroke-linecap:round;stroke-linejoin:round;stroke-miterlimit:0;stroke-dasharray:none;stroke-opacity:1"
         id="path2"
         cx="103.2011"
         cy="119.45757"
         rx="74.706642"
         ry="76.715866" /><path
         style="fill:#ffffff;fill-opacity:1;stroke:#ffffff;stroke-width:0.640326;stroke-opacity:1"
         d="m 89.413378,170.88783 c -0.27679,-0.30585 -0.26716,-0.34838 0.20135,-0.88945 0.94194,-1.08782 2.3595,-3.12033 3.33247,-4.77812 1.4513,-2.47276 2.57343,-4.93064 4.92874,-10.79579 2.249932,-5.60271 3.357622,-7.96837 4.926012,-10.52032 1.10002,-1.78986 2.90363,-4.28402 4.24579,-5.87135 0.49818,-0.5892 0.86866,-1.13135 0.82328,-1.20478 -0.0453,-0.0734 -1.17096,-0.17648 -2.50128,-0.22899 -2.71539,-0.10718 -12.093772,-0.74688 -13.007482,-0.88723 -0.32612,-0.05 -2.15586,-0.24365 -4.06606,-0.43011 -1.91021,-0.18647 -3.968649,-0.40618 -4.57432,-0.48826 -0.605683,-0.0821 -1.59679,-0.19864 -2.20246,-0.25904 -0.605671,-0.0603 -1.787374,-0.21439 -2.625999,-0.34221 -0.838626,-0.12782 -2.287166,-0.31573 -3.218973,-0.41758 -0.931808,-0.10189 -2.570932,-0.29671 -3.642512,-0.43303 -3.081455,-0.39201 -9.387084,-0.91075 -13.714451,-1.12821 -6.220156,-0.31259 -9.319018,-0.0234 -15.317631,1.42922 -0.778204,0.18844 -0.841447,0.17763 -1.143576,-0.19549 -0.17591,-0.21722 -0.319827,-0.44798 -0.319827,-0.51281 0,-0.0649 0.416359,-0.76159 0.925232,-1.54836 1.930573,-2.98484 4.159207,-7.08059 5.341629,-9.81676 0.302016,-0.69885 0.730882,-1.67316 0.953056,-2.16513 0.222173,-0.49195 0.403952,-0.93786 0.403952,-0.9909 0,-0.053 0.112227,-0.33668 0.249493,-0.63031 0.269066,-0.57572 2.970966,-7.44225 3.476628,-8.83539 0.169108,-0.4659 0.5816,-1.51419 0.91668,-2.32952 0.335055,-0.81533 0.866059,-2.11139 1.180003,-2.88012 2.997644,-7.34029 8.509926,-16.923899 13.189757,-22.931555 5.193265,-6.666795 11.334876,-11.779294 17.945029,-14.938111 2.49941,-1.194387 2.71332,-1.282619 4.99307,-2.059513 7.767394,-2.646933 15.701922,-3.167445 26.240652,-1.721373 6.302,0.864723 8.58248,1.473328 11.3511,3.029309 3.07965,1.730795 5.75073,4.754902 7.50369,8.495441 2.28854,4.883363 3.87962,11.048754 4.44069,17.20757 0.28805,3.161935 0.14853,10.701852 -0.23668,12.791162 -0.0429,0.23295 -0.16432,1.14781 -0.2697,2.03303 -0.10542,0.88521 -0.33789,2.37187 -0.5167,3.30368 -0.17881,0.9318 -0.39829,2.07538 -0.48772,2.54129 -1.60414,8.35657 -4.11481,14.79404 -7.56556,19.3985 -1.45971,1.94775 -1.42515,2.16155 0.58834,3.63941 4.52737,3.323 8.15131,8.75305 11.59153,17.3686 0.24185,0.60568 0.71554,1.74926 1.05268,2.54129 1.34988,3.17145 2.29662,5.72649 4.14324,11.18168 0.36274,1.07158 0.77839,2.23177 0.92364,2.57821 0.55943,1.33421 0.19473,2.33534 -0.85047,2.3346 -1.18194,-6.4e-4 -6.68415,-2.36308 -9.50311,-4.07994 -3.65983,-2.22897 -7.83921,-5.9649 -11.1556,-9.97201 -1.97188,-2.38254 -4.61972,-6.11752 -5.28969,-7.4615 -0.7662,-1.53703 -1.07415,-1.86608 -1.74641,-1.86608 -0.68494,0 -1.17767,0.55426 -1.60072,1.80055 -0.38863,1.14488 -1.75174,3.47552 -3.10583,5.31031 -3.86735,5.24027 -9.81269,9.1841 -22.492872,14.92067 -1.48226,0.67057 -3.07143,1.40075 -3.53147,1.62262 -0.46005,0.22188 -0.84849,0.40341 -0.8632,0.40341 -0.0147,0 -0.15755,-0.14455 -0.31743,-0.32121 z m 55.976692,-6.07438 c -1.50156,-5.40469 -3.94129,-11.70596 -6.71962,-17.35528 -3.15498,-6.41518 -6.57325,-10.25169 -11.20369,-12.57454 -1.22438,-0.6142 -1.62567,-1.07322 -1.42023,-1.62454 0.052,-0.13977 0.73152,-0.9784 1.50985,-1.8636 2.95958,-3.36601 4.97557,-7.11477 6.96994,-12.9606 1.18057,-3.46041 2.18687,-7.75575 2.6593,-11.35108 0.14693,-1.11816 0.33821,-2.5667 0.42505,-3.21897 0.2751,-2.06604 0.38921,-10.961736 0.17343,-13.520513 -0.4582,-5.433513 -1.52235,-9.810106 -3.39701,-13.971215 -2.08487,-4.627674 -4.61738,-7.753008 -7.33835,-9.056145 -2.46429,-1.180204 -9.59717,-2.617081 -15.03382,-3.028478 -3.11517,-0.235726 -9.47782,-0.09371 -11.85935,0.264759 -9.693062,1.458882 -17.631794,5.362411 -24.628946,12.11023 -4.487964,4.328025 -8.471148,9.848674 -13.025188,18.052727 -0.962376,1.733695 -3.84061,7.643805 -4.867955,9.995735 -0.488431,1.11817 -0.990125,2.26175 -1.114871,2.54129 -0.308264,0.69081 -2.373584,5.83663 -2.889889,7.20031 -0.229315,0.60568 -0.7117,1.90174 -1.071971,2.88014 -1.617472,4.3926 -3.236859,8.04162 -4.676796,10.53845 -0.413966,0.71781 -0.752661,1.34678 -0.752661,1.39772 0,0.0509 2.092401,0.0926 4.649804,0.0926 2.557391,0 5.587872,0.0742 6.734421,0.16494 1.146536,0.0907 3.799977,0.28308 5.896547,0.42749 2.096557,0.1444 4.383723,0.33403 5.082575,0.42142 0.698865,0.0874 2.185507,0.24041 3.303678,0.34007 1.118172,0.0996 2.579509,0.25939 3.247414,0.35494 0.667918,0.0956 2.497638,0.31756 4.066063,0.49337 5.912203,0.66272 8.818183,1.00178 9.967303,1.16296 0.65227,0.0914 2.17705,0.25112 3.38839,0.35473 1.21136,0.10366 2.69801,0.2624 3.30369,0.35285 1.823964,0.2724 12.612662,0.99837 15.294992,1.02921 1.3771,0.0159 2.53838,0.0848 2.58063,0.15305 0.0422,0.0684 -0.44689,0.5137 -1.08696,0.98966 -1.45892,1.08487 -4.02694,3.60515 -5.3903,5.29011 -2.37294,2.9327 -5.19771,7.99262 -7.08558,12.69216 -1.662181,4.13771 -3.993822,10.84285 -3.770492,10.84285 0.1922,0 3.136382,-1.31837 4.602022,-2.06073 9.57091,-4.84773 15.54719,-11.85114 18.33699,-21.48857 0.22928,-0.79203 0.4532,-1.54283 0.49761,-1.66845 0.0445,-0.12558 0.82736,1.24667 1.73988,3.04954 5.72664,11.31424 12.12246,18.20866 21.29448,22.95453 1.95416,1.01115 1.99991,0.99963 1.60962,-0.40513 z m -27.06749,-38.51943 c -2.72879,-0.45451 -4.73927,-2.20735 -6.43045,-5.60636 -1.98218,-3.98386 -3.3225,-8.14583 -4.32644,-13.43443 -0.49827,-2.62482 -0.51486,-2.86906 -0.52361,-7.70858 -0.009,-4.713095 0.0168,-5.13783 0.44382,-7.454451 0.99886,-5.418461 2.31295,-9.559455 4.40852,-13.892393 0.76057,-1.572606 1.04958,-1.969707 2.49215,-3.424217 1.32446,-1.335445 1.87429,-1.760483 2.91936,-2.256786 4.41526,-2.096792 8.36193,0.185281 11.87578,6.866939 1.62678,3.093345 2.64547,6.436712 3.4586,11.351098 0.44177,2.669983 0.46191,3.050092 0.44868,8.47098 -0.0131,5.35014 -0.0398,5.82559 -0.4664,8.29268 -0.73918,4.27466 -1.8322,7.65622 -3.77513,11.67947 -2.2752,4.71131 -4.05469,6.4746 -7.12731,7.0625 -1.39094,0.26613 -2.05819,0.27664 -3.39757,0.0535 z"
         id="path1" /></g></g></svg>
